<?xml version="1.0" encoding="utf-8"?>
<!-- Generator: Adobe Illustrator 19.0.0, SVG Export Plug-In . SVG Version: 6.00 Build 0)  -->
<svg version="1.1" id="Layer_1" xmlns="http://www.w3.org/2000/svg" xmlns:xlink="http://www.w3.org/1999/xlink" x="0px" y="0px"
	 viewBox="0 0 218.3 87.3" style="enable-background:new 0 0 218.3 87.3;" xml:space="preserve">
<style type="text/css">
	.st0{fill:#F19023;}
	.st1{fill:url(#XMLID_76_);}
	.st2{fill:url(#XMLID_77_);}
	.st3{fill:url(#XMLID_78_);}
	.st4{fill:url(#XMLID_79_);}
	.st5{fill:url(#XMLID_80_);}
	.st6{fill:url(#XMLID_81_);}
</style>
<g id="XMLID_404_">
	<g id="XMLID_474_">
		<g id="XMLID_36_">
			<g id="XMLID_37_">
				<g id="XMLID_40_">
					<path id="XMLID_41_" class="st0" d="M165.8,28.1c0,0-2.3,0.6-6.6,0.2c-4.3-0.3-10.3-1.6-17.6-3.8c-3.6-1.1-7.6-2.4-11.8-3.7
						c-4.2-1.3-8.8-2.7-13.6-3.9c-4.8-1.2-9.9-2.1-15.3-2.2c-5.3-0.1-10.9,0.6-16.3,2c-5.5,1.4-10.7,3.4-15.5,5.8
						c-2.4,1.2-4.7,2.5-7,3.8c-0.6,0.3-1.1,0.7-1.7,1c-0.6,0.3-1.3,0.6-2,0.9c-1.4,0.4-2.7,0.5-4,0.7c-5,0.5-9.7,1-14.1,1.6
						l-6.4,0.9c-2,0.3-4,0.7-5.8,1.1c-3.6,0.9-6.8,2.1-9.4,3.5c-2.6,1.4-4.6,3.1-6,4.6c-1.4,1.6-2.2,3-2.6,4c-0.4,1-0.5,1.6-0.5,1.6
						c0,0,0-0.6,0.4-1.7c0.4-1.1,1.1-2.6,2.4-4.3c1.3-1.7,3.3-3.5,5.9-5.1c2.6-1.6,5.8-3,9.5-4.1c1.8-0.5,3.8-1,5.9-1.4
						c2.1-0.4,4.2-0.7,6.4-1.1c4.4-0.7,9.2-1.4,14.1-2.1c1.2-0.2,2.5-0.3,3.5-0.7c1-0.3,2-1,3.2-1.7c2.2-1.4,4.6-2.8,7.1-4
						c4.9-2.5,10.3-4.7,16-6.1c5.7-1.5,11.5-2.1,17.1-2c5.6,0.2,10.9,1.3,15.8,2.6c4.9,1.3,9.4,2.9,13.6,4.4l11.7,4.2
						c7.1,2.5,13,4.2,17.2,4.7C163.5,28.5,165.8,28,165.8,28.1z"/>
				</g>
				<g id="XMLID_38_">
					<path id="XMLID_39_" class="st0" d="M79.1,21.2c0,0-1.7,0.4-4.3,1.8c-1.3,0.7-2.8,1.6-4.5,2.8c-0.8,0.6-1.7,1.3-2.6,2l-0.6,0.5
						l-0.2,0.2l-0.2,0.2l-0.1,0.1l0,0c0,0,0,0,0,0l0.7-0.1l0.1,0l0,0l0.1,0l0.6,0l1.1,0l4.8,0l10.4,0l14.2,0.1c2.2,0,4.3,0,6.2,0
						c1.9,0,3.8,0,5.3-0.4c1.5-0.3,2.8-1.1,3.7-1.9c0.9-0.9,1.5-1.8,1.9-2.6c0.8-1.7,0.9-2.7,0.9-2.7c0,0,0,1-0.6,2.8
						c-0.3,0.9-0.9,1.9-1.8,3c-0.9,1-2.2,2-3.9,2.5c-0.8,0.3-1.7,0.4-2.6,0.5c-0.9,0.1-1.9,0.2-2.8,0.3c-2,0.1-4,0.2-6.2,0.3
						c-4.4,0.2-9.2,0.2-14.2,0.2c-3.6,0-7.1-0.1-10.4-0.1L63,30.2c0,0,0-0.1,0.1-0.1l0.1-0.1l0.3-0.3l0.5-0.5c0.4-0.3,0.7-0.7,1.1-1
						c0.4-0.3,0.8-0.6,1.1-0.9l0.7-0.6c0.9-0.7,1.9-1.3,2.8-1.8c1.8-1.1,3.4-1.9,4.8-2.4C77.4,21.4,79.1,21.2,79.1,21.2z"/>
				</g>
			</g>
		</g>
	</g>
	<g id="XMLID_405_">
		<g id="XMLID_413_">
			<g id="XMLID_414_">
				<g id="XMLID_107_">
					<path id="XMLID_123_" class="st0" d="M41.5,71.9c-2.8,1.8-5.2,3.1-7.3,3.7c-2.1,0.7-4.3,1-6.4,1c-2.6,0-5.1-0.5-7.2-1.5
						c-2.2-1-4-2.4-5.5-4.1c-1.5-1.7-2.6-3.7-3.2-6.1c-0.7-2.3-0.8-4.8-0.4-7.5c0.4-2.7,1.4-5.2,2.8-7.5c1.4-2.3,3.2-4.4,5.3-6.1
						c2.1-1.7,4.4-3.1,7-4.1c2.5-1,5.2-1.5,7.8-1.5c2,0,4,0.3,5.9,1c2,0.7,4,1.9,6.1,3.8l-4.6,5.4c-1.9-1.6-3.6-2.6-4.9-3
						c-1.4-0.4-2.6-0.6-3.8-0.6c-1.7,0-3.4,0.3-5,1c-1.6,0.7-3.1,1.6-4.5,2.8c-1.3,1.2-2.5,2.5-3.4,4.1c-0.9,1.6-1.6,3.2-1.8,4.9
						c-0.3,1.6-0.2,3.1,0.2,4.6c0.4,1.5,1.2,2.8,2.1,4c1,1.2,2.2,2.1,3.6,2.8c1.4,0.7,3,1,4.7,1c0.6,0,1.2,0,1.9-0.1
						c0.7-0.1,1.4-0.3,2.2-0.5c0.8-0.3,1.6-0.6,2.6-1.1c0.9-0.5,2-1.1,3.2-1.9L41.5,71.9z"/>
					<path id="XMLID_120_" class="st0" d="M63.9,76l0.4-2.1c-1,0.7-2.2,1.2-3.5,1.8c-1.3,0.5-2.6,0.8-3.9,0.8
						c-2.2,0-4.1-0.4-5.7-1.1c-1.6-0.7-2.9-1.7-3.8-2.9c-1-1.2-1.7-2.6-2-4.3c-0.4-1.6-0.4-3.4-0.1-5.2c0.3-1.8,1-3.6,1.9-5.2
						c0.9-1.6,2.1-3,3.5-4.2c1.4-1.2,3-2.1,4.8-2.8c1.8-0.7,3.8-1,5.9-1c2.6,0,4.8,0.8,6.6,2.3l0.4-2h6.6L70.6,76H63.9z M66.3,62.7
						c0.3-2,0-3.6-1.1-4.9c-1.1-1.3-2.7-2-5-2c-1,0-2,0.2-2.9,0.6c-0.9,0.4-1.8,0.9-2.5,1.6c-0.8,0.7-1.4,1.4-1.9,2.3
						c-0.5,0.9-0.8,1.8-1,2.7c-0.3,2.1,0,3.9,1.1,5.3c1.1,1.4,2.7,2.1,4.9,2.1c2.3,0,4.1-0.7,5.6-2.2C65,66.8,65.9,64.9,66.3,62.7z"
						/>
					<path id="XMLID_118_" class="st0" d="M91.6,57.1c-0.4-0.4-0.8-0.6-1.3-0.7c-0.4-0.1-0.7-0.1-0.8-0.1c-0.9,0-1.6,0.3-2.2,0.8
						c-0.6,0.5-1,1.2-1.4,2c-0.4,0.8-0.6,1.6-0.8,2.5c-0.2,0.9-0.4,1.7-0.5,2.4l-2,12h-6.7l4.3-25.8H87l-0.4,2
						c0.8-0.8,1.6-1.4,2.5-1.8c0.9-0.4,1.6-0.5,2.3-0.5c1,0,1.8,0.1,2.5,0.4c0.7,0.3,1.4,0.6,2,0.9L91.6,57.1z"/>
					<linearGradient id="XMLID_76_" gradientUnits="userSpaceOnUse" x1="109.2358" y1="76.0273" x2="109.2358" y2="38.7371">
						<stop  offset="0" style="stop-color:#2C3B87"/>
						<stop  offset="0.4251" style="stop-color:#2F4E96"/>
						<stop  offset="1" style="stop-color:#3466AB"/>
					</linearGradient>
					<path id="XMLID_116_" class="st1" d="M112.2,45.3L107.1,76h-7l5.1-30.7h-8.8l1.1-6.6h24.5l-1.1,6.6H112.2z"/>
					<linearGradient id="XMLID_77_" gradientUnits="userSpaceOnUse" x1="128.6218" y1="76.0273" x2="128.6218" y2="49.8956">
						<stop  offset="0" style="stop-color:#2C3B87"/>
						<stop  offset="0.4251" style="stop-color:#2F4E96"/>
						<stop  offset="1" style="stop-color:#3466AB"/>
					</linearGradient>
					<path id="XMLID_114_" class="st2" d="M134.3,57.1c-0.4-0.4-0.8-0.6-1.3-0.7c-0.4-0.1-0.7-0.1-0.8-0.1c-0.9,0-1.6,0.3-2.2,0.8
						c-0.6,0.5-1,1.2-1.4,2c-0.4,0.8-0.6,1.6-0.8,2.5c-0.2,0.9-0.4,1.7-0.5,2.4l-2,12h-6.7l4.3-25.8h6.7l-0.4,2
						c0.8-0.8,1.6-1.4,2.5-1.8c0.9-0.4,1.6-0.5,2.3-0.5c1,0,1.8,0.1,2.5,0.4c0.7,0.3,1.4,0.6,2,0.9L134.3,57.1z"/>
					<linearGradient id="XMLID_78_" gradientUnits="userSpaceOnUse" x1="150.5422" y1="76.5916" x2="150.5422" y2="50.1785">
						<stop  offset="0" style="stop-color:#2C3B87"/>
						<stop  offset="0.4251" style="stop-color:#2F4E96"/>
						<stop  offset="1" style="stop-color:#3466AB"/>
					</linearGradient>
					<path id="XMLID_112_" class="st3" d="M160.5,65.4c-0.3,1.6-0.7,3.1-1.3,4.4c-0.6,1.4-1.4,2.6-2.4,3.6c-1,1-2.3,1.8-3.8,2.4
						c-1.5,0.6-3.4,0.8-5.5,0.8c-2.1,0-3.8-0.3-5.2-0.8c-1.3-0.6-2.3-1.4-3-2.4c-0.7-1-1.1-2.2-1.2-3.6c-0.1-1.4,0-2.9,0.2-4.5
						l2.5-15.1h6.7l-2.5,15.1c-0.4,2-0.4,3.4,0.1,4.1c0.4,0.7,1.6,1.1,3.4,1.1c0.9,0,1.7-0.1,2.3-0.2c0.6-0.2,1.1-0.4,1.4-0.8
						c0.4-0.4,0.7-0.9,0.9-1.6c0.2-0.7,0.4-1.5,0.6-2.5l2.5-15.1h6.7L160.5,65.4z"/>
					<linearGradient id="XMLID_79_" gradientUnits="userSpaceOnUse" x1="173.5382" y1="76.6628" x2="173.5382" y2="49.6127">
						<stop  offset="0" style="stop-color:#2C3B87"/>
						<stop  offset="0.4251" style="stop-color:#2F4E96"/>
						<stop  offset="1" style="stop-color:#3466AB"/>
					</linearGradient>
					<path id="XMLID_110_" class="st4" d="M183.2,67.6c-0.2,1.3-0.7,2.5-1.4,3.6c-0.7,1.1-1.5,2.1-2.5,2.9c-1,0.8-2.1,1.4-3.4,1.9
						c-1.2,0.4-2.5,0.7-3.8,0.7c-2.3,0-4.2-0.7-5.8-2c-1.6-1.3-2.6-3.4-3-6.2l6.4-2.3c0.2,1.7,0.6,2.9,1.2,3.5c0.6,0.6,1.3,1,2.1,1
						c0.8,0,1.6-0.3,2.3-0.9c0.7-0.6,1.1-1.3,1.3-2.2c0.1-0.8-0.1-1.3-0.7-1.6c-0.5-0.3-1.3-0.5-2.2-0.8c-0.8-0.3-1.6-0.6-2.5-1.1
						c-0.9-0.4-1.7-1-2.5-1.6c-0.8-0.6-1.3-1.4-1.7-2.3c-0.4-0.9-0.5-1.9-0.3-3c0.2-1.2,0.6-2.2,1.2-3.2c0.6-0.9,1.4-1.7,2.3-2.4
						c0.9-0.6,1.9-1.1,3-1.5c1.1-0.4,2.2-0.5,3.2-0.5c1.5,0,2.8,0.4,4,1.1c1.2,0.7,2.3,2,3.2,4l-6.1,3.1c-0.5-1.1-0.9-1.8-1.3-1.9
						c-0.4-0.2-0.7-0.2-1-0.2c-0.6,0-1,0.2-1.3,0.5c-0.3,0.3-0.5,0.6-0.6,1c-0.1,0.4,0.1,0.8,0.6,1.1c0.5,0.3,1.2,0.6,1.9,0.9
						c0.8,0.3,1.6,0.7,2.6,1.1c0.9,0.4,1.8,0.9,2.5,1.6c0.7,0.6,1.3,1.4,1.7,2.4C183.4,65,183.4,66.2,183.2,67.6z"/>
					<linearGradient id="XMLID_80_" gradientUnits="userSpaceOnUse" x1="195.7492" y1="76.0273" x2="195.7492" y2="40.9268">
						<stop  offset="0" style="stop-color:#2C3B87"/>
						<stop  offset="0.4251" style="stop-color:#2F4E96"/>
						<stop  offset="1" style="stop-color:#3466AB"/>
					</linearGradient>
					<path id="XMLID_108_" class="st5" d="M197.8,56.3L194.6,76h-6.8l3.2-19.8h-3.6l1.1-6.1h3.6l1.6-9.3h6.8l-1.6,9.3h5.2l-1.1,6.1
						H197.8z"/>
				</g>
			</g>
		</g>
		<g id="XMLID_406_">
			<linearGradient id="XMLID_81_" gradientUnits="userSpaceOnUse" x1="146.8825" y1="30.7504" x2="186.2965" y2="30.7504">
				<stop  offset="0" style="stop-color:#2C3B87"/>
				<stop  offset="0.4251" style="stop-color:#2F4E96"/>
				<stop  offset="1" style="stop-color:#3466AB"/>
			</linearGradient>
			<path id="XMLID_11_" class="st6" d="M162.6,44.3c0-0.2,0.1-0.3,0.2-0.4c0,0,0-0.1,0-0.1c0.1-0.6,0.3-1.1,0.5-1.6c0,0,0.1,0,0.1,0
				c0,0,0-0.1,0-0.1c0-0.2,0-0.3,0.1-0.4c0,0,0.1,0,0.1,0c0,0,0-0.1,0-0.1c3.5-8.3,8.2-15.6,15.2-20.9c0,0,0.1,0,0.1,0
				c0.8-0.9,1.9-1.5,3.1-2c0,0,0.1,0,0.1,0c0.5-0.5,1.3-0.7,2-0.9c0,0,0.1,0,0.1,0c0.3-0.2,0.8-0.2,1.3-0.3c0.2,0,0.4,0,0.6,0
				c0-0.1-0.1-0.1-0.1-0.2c-1.1,0.1-2.3,0.1-3.4,0.2c-0.3,0.3-1,0.1-1.4,0.3c-0.1,0-0.2,0-0.3,0c-0.1,0.2-0.7,0.1-0.9,0.3
				c-0.1,0-0.3,0-0.4,0c-0.1,0.2-0.4,0.2-0.6,0.3c0,0-0.1,0-0.1,0c-0.1,0.2-0.4,0.2-0.6,0.3c0,0-0.1,0-0.1,0
				c-5.6,2.7-9.5,6.9-12.7,11.7c0,0,0,0,0,0.1c-0.3,0.5-0.7,1-1,1.5c0,0,0,0,0,0c-1,1.7-2,3.4-3,5.2c-0.1,0-0.1,0-0.1-0.1
				c0,0-0.1,0-0.1,0c-2-1.4-4.2-2.5-6.6-3.3c0,0,0-0.1,0-0.1c0,0-0.1,0-0.1,0c-0.6-0.1-1.1-0.4-1.7-0.5c0,0,0-0.1,0-0.1
				c-0.1,0-0.2,0-0.3,0c-0.5,0-0.7-0.3-1.2-0.3c0,0,0-0.1,0-0.1c-0.1,0-0.2,0-0.3,0c-0.8-0.1-1.4-0.5-2.3-0.5c0,0,0-0.1,0-0.1
				c0,0-0.1,0-0.1,0c-0.3,0.1-0.3-0.2-0.6-0.1c0,0,0-0.1,0-0.1c-0.1,0-0.2,0-0.3,0c-0.3,0-0.4-0.2-0.8-0.1c0,0,0-0.1,0-0.1
				c0,0-0.1,0-0.1,0c0,0.3,0.5,0.2,0.5,0.5c0,0,0.1,0,0.1,0c0.5,0.2,1.1,0.3,1.4,0.7c0,0,0.1,0,0.1,0
				C154.8,35.2,158.9,39.6,162.6,44.3z"/>
		</g>
	</g>
</g>
</svg>
